<?xml version="1.0" encoding="UTF-8"?>
<svg id="Layer_1" data-name="Layer 1" xmlns="http://www.w3.org/2000/svg" viewBox="0 0 1100 1100">
  <defs>
    <style>
      .cls-1 {
        fill: #fff;
      }

      .cls-2 {
        fill: #e11f26;
      }
    </style>
  </defs>
  <g>
    <path class="cls-1" d="m549.97,886c-166.05-53.95-344.92-53.95-510.97,0V262.59c166.05-53.95,344.92-53.95,510.97,0v623.41Z"/>
    <path class="cls-2" d="m554.68,868.89c-65.79-21.29-134.17-34.36-203.16-39.13-68.43-4.73-137.28-.73-204.82,11.14-38.08,6.69-75.64,16.09-112.42,27.99l22.46,17.11V262.59c-4.34,5.7-8.68,11.41-13.03,17.11,32.09-10.39,64.77-18.87,97.88-25.3,8.16-1.59,16.35-3.05,24.56-4.39,3.95-.64,7.9-1.26,11.86-1.84,2.13-.32,4.26-.62,6.39-.92.91-.13,1.83-.25,2.74-.38,3.07-.42-2.31.3.77-.1,16.76-2.15,33.58-3.84,50.44-4.99,33.07-2.25,66.28-2.51,99.38-.77,16.87.88,33.71,2.28,50.49,4.2,3.97.45,7.94.94,11.9,1.45.01,0,3.02.39,1.3.16s1.28.18,1.3.18c2.44.34,4.87.68,7.31,1.04,8.22,1.21,16.43,2.54,24.61,4,37.45,6.67,74.41,15.96,110.6,27.67-4.34-5.7-8.68-11.41-13.03-17.11v623.41c0,9.28,8.16,18.17,17.74,17.74,9.61-.43,17.74-7.8,17.74-17.74V262.59c0-8.08-5.56-14.69-13.03-17.11-65.79-21.29-134.17-34.36-203.16-39.13-68.43-4.73-137.28-.73-204.82,11.14-38.08,6.69-75.64,16.09-112.42,27.99-7.47,2.42-13.03,9.06-13.03,17.11v623.41c0,11.11,11.39,20.69,22.46,17.11,32.09-10.39,64.77-18.87,97.88-25.3,8.16-1.59,16.35-3.05,24.56-4.39,3.95-.64,7.9-1.26,11.86-1.84,2.13-.32,4.26-.62,6.39-.92.91-.13,1.83-.25,2.74-.38,3.07-.42-2.31.3.77-.1,16.76-2.15,33.58-3.84,50.44-4.99,33.07-2.25,66.28-2.51,99.38-.77,16.87.88,33.71,2.28,50.49,4.2,3.97.45,7.94.94,11.9,1.45.01,0,3.02.39,1.3.16s1.28.18,1.3.18c2.44.34,4.87.68,7.31,1.04,8.22,1.21,16.43,2.54,24.61,4,37.45,6.67,74.41,15.96,110.6,27.67,8.83,2.86,19.76-3.33,21.82-12.39,2.21-9.72-2.93-18.76-12.39-21.82Z"/>
  </g>
  <g>
    <path class="cls-1" d="m1061,884.87c-166.07-53.96-344.96-53.96-511.03,0V261.46c166.07-53.96,344.96-53.96,511.03,0v623.41Z"/>
    <path class="cls-2" d="m1065.72,867.76c-65.8-21.3-134.19-34.36-203.18-39.13-68.44-4.73-137.3-.73-204.85,11.14-38.08,6.69-75.65,16.09-112.43,28,7.49,5.7,14.97,11.41,22.46,17.11V261.46c-4.34,5.7-8.68,11.41-13.03,17.11,32.09-10.39,64.78-18.88,97.89-25.31,8.17-1.59,16.35-3.05,24.56-4.39,3.95-.64,7.9-1.26,11.86-1.85,2.13-.32,4.26-.62,6.39-.92.91-.13,1.83-.25,2.74-.38,3.07-.42-2.31.3.77-.1,16.77-2.15,33.58-3.84,50.45-4.99,33.08-2.25,66.28-2.51,99.39-.77,16.87.88,33.72,2.29,50.5,4.2,3.97.45,7.94.94,11.9,1.45.01,0,3.02.39,1.3.16s1.29.18,1.3.18c2.44.34,4.87.68,7.31,1.04,8.22,1.21,16.43,2.54,24.61,4,37.46,6.67,74.42,15.96,110.61,27.67-4.34-5.7-8.68-11.41-13.03-17.11v623.41c0,9.28,8.16,18.17,17.74,17.74,9.61-.43,17.74-7.8,17.74-17.74V261.46c0-8.08-5.56-14.69-13.03-17.11-65.8-21.3-134.19-34.36-203.18-39.13-68.44-4.73-137.3-.73-204.85,11.14-38.08,6.69-75.65,16.09-112.43,28-7.47,2.42-13.03,9.06-13.03,17.11v623.41c0,11.11,11.4,20.69,22.46,17.11,32.09-10.39,64.78-18.88,97.89-25.31,8.17-1.59,16.35-3.05,24.56-4.39,3.95-.64,7.9-1.26,11.86-1.85,2.13-.32,4.26-.62,6.39-.92.91-.13,1.83-.25,2.74-.38,3.07-.42-2.31.3.77-.1,16.77-2.15,33.58-3.84,50.45-4.99,33.08-2.25,66.28-2.51,99.39-.77,16.87.88,33.72,2.29,50.5,4.2,3.97.45,7.94.94,11.9,1.45.01,0,3.02.39,1.3.16s1.29.18,1.3.18c2.44.34,4.87.68,7.31,1.04,8.22,1.21,16.43,2.54,24.61,4,37.46,6.67,74.42,15.96,110.61,27.67,8.83,2.86,19.76-3.33,21.83-12.39,2.21-9.72-2.93-18.76-12.39-21.83Z"/>
  </g>
  <g>
    <g>
      <path class="cls-1" d="m548.7,811.32c-150.22-48.81-312.03-48.81-462.24,0V228.08c150.21-48.81,312.03-48.81,462.24,0,0,194.41,0,388.83,0,583.24Z"/>
      <path class="cls-2" d="m553.04,795.59c-119.15-38.55-246.86-46.98-370.12-25.16-34.14,6.04-67.81,14.49-100.8,25.16,6.89,5.25,13.77,10.49,20.66,15.74V228.08l-11.98,15.74c114.43-37.02,237.42-45.87,354.59-24.84,33.52,6.02,66.58,14.36,98.98,24.84l-11.98-15.74c0,75.9,0,151.8,0,227.7,0,75.9,0,151.8,0,227.7,0,42.61,0,85.22,0,127.83,0,8.54,7.51,16.72,16.32,16.32s16.32-7.17,16.32-16.32c0-75.9,0-151.8,0-227.7,0-75.9,0-151.8,0-227.7,0-42.61,0-85.22,0-127.83,0-7.44-5.11-13.52-11.98-15.74-119.15-38.55-246.86-46.98-370.12-25.16-34.14,6.04-67.81,14.49-100.8,25.16-6.87,2.22-11.98,8.34-11.98,15.74v583.24c0,10.22,10.48,19.03,20.66,15.74,114.43-37.02,237.42-45.87,354.59-24.84,33.52,6.02,66.58,14.36,98.98,24.84,8.13,2.63,18.18-3.07,20.08-11.4,2.04-8.94-2.7-17.26-11.4-20.08Z"/>
    </g>
    <g>
      <path class="cls-1" d="m1011.59,811.32c-150.22-48.81-312.03-48.81-462.24,0V228.08c150.21-48.81,312.03-48.81,462.24,0v583.24Z"/>
      <path class="cls-2" d="m1015.93,795.59c-119.15-38.55-246.86-46.98-370.12-25.16-34.14,6.04-67.81,14.49-100.8,25.16,6.89,5.25,13.77,10.49,20.66,15.74V228.08c-3.99,5.25-7.99,10.49-11.98,15.74,114.43-37.02,237.42-45.87,354.59-24.84,33.52,6.02,66.58,14.36,98.98,24.84-3.99-5.25-7.99-10.49-11.98-15.74v583.24c0,8.54,7.51,16.72,16.32,16.32s16.32-7.17,16.32-16.32V228.08c0-7.44-5.11-13.52-11.98-15.74-119.15-38.55-246.86-46.98-370.12-25.16-34.14,6.04-67.81,14.49-100.8,25.16-6.87,2.22-11.98,8.34-11.98,15.74,0,75.9,0,151.8,0,227.7v355.54c0,10.22,10.48,19.03,20.66,15.74,114.43-37.02,237.42-45.87,354.59-24.84,33.52,6.02,66.58,14.36,98.98,24.84,8.13,2.63,18.18-3.07,20.08-11.4,2.04-8.94-2.7-17.26-11.4-20.08Z"/>
    </g>
  </g>
  <g>
    <path class="cls-2" d="m661.97,631.1c61.94-16.23,127.01-18.95,190.07-7.67,15.7,2.81,31.24,6.43,46.58,10.76,11.29,3.18,16.11-14.37,4.84-17.54-63.38-17.86-129.73-22.81-194.95-13.51-17.31,2.47-34.46,5.98-51.37,10.41-11.32,2.97-6.52,20.52,4.84,17.54h0Z"/>
    <path class="cls-2" d="m661.97,507.82c61.94-16.23,127.01-18.95,190.07-7.67,15.7,2.81,31.24,6.43,46.58,10.76,11.29,3.18,16.11-14.37,4.84-17.54-63.38-17.86-129.73-22.81-194.95-13.51-17.31,2.47-34.46,5.98-51.37,10.41-11.32,2.97-6.52,20.52,4.84,17.54h0Z"/>
    <path class="cls-2" d="m661.97,384.54c61.94-16.23,127.01-18.95,190.07-7.67,15.7,2.81,31.24,6.43,46.58,10.76,11.29,3.18,16.11-14.37,4.84-17.54-63.38-17.86-129.73-22.81-194.95-13.51-17.31,2.47-34.46,5.98-51.37,10.41-11.32,2.97-6.52,20.52,4.84,17.54h0Z"/>
  </g>
  <path class="cls-2" d="m199.08,649.26c61.94-16.23,127.01-18.95,190.07-7.67,15.7,2.81,31.24,6.43,46.58,10.76,11.29,3.18,16.11-14.37,4.84-17.54-63.38-17.86-129.73-22.81-194.95-13.51-17.31,2.47-34.46,5.98-51.37,10.41-11.32,2.97-6.52,20.52,4.84,17.54h0Z"/>
  <path class="cls-2" d="m199.08,525.99c61.94-16.23,127.01-18.95,190.07-7.67,15.7,2.81,31.24,6.43,46.58,10.76,11.29,3.18,16.11-14.37,4.84-17.54-63.38-17.86-129.73-22.81-194.95-13.51-17.31,2.47-34.46,5.98-51.37,10.41-11.32,2.97-6.52,20.52,4.84,17.54h0Z"/>
  <g>
    <path class="cls-1" d="m442.73,418.19c-82.9-15.81-168.05-15.81-250.95,0v-114.19c82.9-15.81,168.05-15.81,250.95,0v114.19Z"/>
    <path class="cls-2" d="m445.21,409.18c-65.4-12.38-132.42-15.48-198.63-8.45-19.2,2.04-38.31,4.86-57.28,8.45l11.82,9.01v-114.19l-6.86,9.01c81.09-15.35,164.9-15.35,245.98,0l-6.86-9.01v114.19c0,12.02,18.68,12.04,18.68,0v-114.19c0-3.82-2.88-8.25-6.86-9.01-65.4-12.38-132.42-15.48-198.63-8.45-19.2,2.04-38.31,4.86-57.28,8.45-3.98.75-6.86,5.15-6.86,9.01v114.19c0,6.46,5.94,10.12,11.82,9.01,81.09-15.35,164.9-15.35,245.98,0,4.95.94,10.08-1.38,11.49-6.52,1.25-4.56-1.54-10.55-6.52-11.49Z"/>
  </g>
</svg>