<?xml version="1.0" encoding="UTF-8"?>
<svg id="Layer_1" data-name="Layer 1" xmlns="http://www.w3.org/2000/svg" viewBox="0 0 1100 1100">
  <defs>
    <style>
      .cls-1 {
        fill: #e21617;
      }
    </style>
  </defs>
  <path class="cls-1" d="m21.33,321.23c1.42-12.17,5.11-16.02,26.04-51.77,12.49-21.33,28.01-48.7,29.33-51.02.22-.39,1.42-2.53,3.09-5.42,2.19-3.81,3.41-5.83,12.88-22.41,0,0,34.86-60.98,36.17-60.21.23.13-6.68,8.74-3.99,16.41,1.56,4.44,5.81,6.99,6.68,7.53.44.27,4.46,2.7,9.23,2.11,7.34-.91,11.81-8.4,11.97-8.28.65.5-75.17,127.55-93.51,162.11-2.71,5.1-9.12,16.95-6.15,30.47,3.65,16.6,16.17,28.36,33.06,31.13,15.29,2.51,31.05-5.05,39.8-19.98,17.68-30.17,35-60.55,52.48-90.83,18-31.17,36.09-62.29,54-93.52,12.72-22.19,7.43-45.63-12.65-57.16-19.98-11.47-42.6-4.07-55.64,18.22-3.81,6.51-7.32,13.21-11.39,19.55-5.36,8.34-13.66,10.57-21.19,6.17-7.52-4.4-9.94-12.87-5.32-21.43,5.37-9.95,10.56-20.16,17.3-29.16,17.3-23.13,40.7-33.29,69.38-27.99,29.09,5.38,47.67,23.41,55.1,51.77,2.21,8.42,6.2,12.95,13.03,17.81,13.66,9.72,26.04,10.87,42.45,5.34,38.21-12.88,76.12-8.1,111.31,11.43,43.15,23.96,86.12,48.33,128.17,74.15,14.83,9.1,25.86,9.28,38.22-3.69-10.03-2.81-19.86-5.3-29.52-8.31-29.21-9.11-48.22-35.38-47.93-65.86.29-30.23,19.99-56.99,49.79-64.09,11.52-2.75,24.85-2.85,36.33-.02,50.88,12.57,101.46,26.36,151.96,40.38,12.1,3.36,23.38,9.62,35.25,13.94,3.26,1.19,7.74,1.25,10.94-.02,11.83-4.68,18.96-12.27,22.8-25.9,8-28.46,29.33-44.53,58.36-47.79,28.68-3.22,52.03,8.23,67.15,33.06,18.36,30.15,35.59,60.99,53.26,91.56,18.87,32.65,38.09,65.11,56.4,98.07,25.28,45.52-1.57,98.69-53.1,104.82-9.86,1.17-20.21-2.28-30.37-3.01-4.69-.33-9.9-.3-14.15,1.4-16.93,6.77-26.5,17.43-30.41,37.5-7.84,40.24-32.84,70.31-68.22,91.09-37.84,22.22-75.8,44.23-114.08,65.67-8.13,4.55-10.89,9.65-10.38,18.62.75,13.25.19,26.57.19,42.65,8.82-8.62,15.61-15.57,22.74-22.16,38.92-35.97,100.77-17.33,112.75,34.28,5.2,22.4.35,43.27-15.55,60.25-16.88,18.03-34.61,35.27-52.22,52.59-7.41,7.29-16.59,7.35-22.84,1-6.47-6.57-6.29-15.11,1.23-22.82,16.55-16.93,33.61-33.37,50.03-50.42,11.19-11.61,13.33-28.14,6.45-41.97-6.93-13.93-21.72-23.03-37.22-19.97-8.53,1.68-17.4,6.51-23.96,12.35-15.1,13.43-29,28.24-43.16,42.71-5.79,5.92-12.09,9.3-20.18,5.82-7.83-3.37-9.02-10.37-9.01-18.02.06-87.17.04-174.33.02-261.5,0-4.11.06-8.26-.39-12.33-1.86-16.94-13.94-27.74-30.27-27.28-15.84.45-27.66,12.72-28.27,29.43-.11,3.08-.05,6.18-.05,9.27,0,54.91,0,109.82,0,164.73,0,2.75.11,5.5-.05,8.23-.59,9.69-6.61,16.07-15.17,16.22-9.01.16-15.51-6.4-15.57-16.71-.19-32.26-.08-64.52-.08-96.78,0-33.29.02-66.58,0-99.86-.01-22.24-11.08-35.88-29.22-36.12-18.31-.24-29.89,13.85-29.91,36.59-.03,63.14,0,126.29-.02,189.43,0,16.21-4.53,23.25-15.01,23.42-10.79.18-15.85-7.44-15.86-23.91-.01-57.31.09-114.62-.07-171.93-.05-18.94-11.07-31.28-27.69-31.96-16.79-.69-29.66,10.94-30.68,27.82-.21,3.42-.15,6.86-.15,10.29,0,55.59.03,111.19-.07,166.78,0,4.4-.15,9.05-1.55,13.13-2.55,7.42-8.55,10.54-16.25,9.48-7.29-1-11.71-5.44-12.71-12.79-.46-3.38-.29-6.85-.29-10.28-.02-44.61.17-89.23-.1-133.84-.14-22.41-17.07-36.44-36.89-31.33-11.93,3.08-20.71,13.69-22.01,26.87-.34,3.4-.21,6.86-.21,10.29,0,88.88.22,177.77-.1,266.65-.16,44.45,16.59,79.63,53.18,105.55,4.71,3.33,7.92,10.92,8.83,16.98,1.45,9.68.39,19.73.39,30.21h236.39c0-7.39-1.02-15,.33-22.17,1.08-5.71,4.28-10.53,7.97-15.23,19.18-24.43,113.74-104.05,114.79-102.54.51.74-24.33,16.41-21.94,28.82.99,5.15,4.51,8.69,4.51,8.69.92.92,3.98,3.76,8.22,4.42,7.75,1.2,14.39-5.71,14.62-5.42.78.97-80.52,77-91.06,84.57-.73.52-3.44,2.41-5.21,5.9-.9,1.77-1.4,3.79-1.59,6.36-.91,12.27,2.43,21.18,11.49,30.62,20.11,20.94,23.9,46.86,12.79,73.52-11.14,26.73-32.51,42.37-61.4,42.76-74.46.99-148.94.68-223.4.17-28.27-.19-53.46-18.91-62.79-45.46-9.89-28.16-4.4-53.67,16.99-74.61,6.24-6.11,8.04-11.98,8.79-20.28,1.49-16.61-3.56-27.89-16.58-39.47-31.28-27.81-45.66-64.55-45.98-106.3-.42-54.56-.23-109.13.03-163.69.03-6.62-1.55-10.69-7.73-13.82-10.37-5.24-20.24-11.46-32.31-18.41,2.95,11.58,5.6,21.23,7.85,30.98,8.44,36.54-13.5,72.36-49.8,81.5-33,8.31-69.39-8.53-79-41.15-20.63-70.01-42.37-146.72-47.87-180.71-.1-.61-.41-2.5-.71-5.07-1.06-9.16-.05-10.59-.8-13.81-2.01-8.59-13.15-12.6-19.47-15.35-2.77-1.21-6.6-1.55-9.48-.72-22.72,6.56-43.35,4.47-59.69-5.04-22.16-12.9-31.57-39.73-33.35-47.32-2.83-12.06-1.94-21.83-1.54-25.23Zm425.04,82.95c6.31-21.3,18.94-35.92,39.07-43.08,19.79-7.04,38.64-2.81,57.4,6.45-1.28-3.49-3.13-5.75-5.49-7.15-12.09-7.17-24.35-14.04-36.47-21.17-10.3-6.06-13.53-14.6-8.92-22.89,4.65-8.37,13.54-9.93,24.12-3.93,14.91,8.46,29.52,17.47,44.7,25.39,4.18,2.18,9.97,1.96,14.98,1.74,9.14-.4,18.37-3.02,27.33-2.2,20.56,1.88,35.18,13.87,45.21,30.42,11.5-4.03,22.34-7.83,33.86-11.87-.23-11.74-7.12-19.89-17.55-25.91-80.48-46.4-160.79-93.07-241.46-139.15-35.48-20.27-72.37-21.44-109.43-3.97-8.64,4.07-16.14,3.92-24.18-1.26-7.65-4.94-15.84-9.07-24.01-13.67-39.57,68.54-78.63,136.19-117.97,204.32,5.55,3.29,10.95,6.97,16.76,9.8,9.21,4.49,12.17,11.33,12.11,21.55-.07,12.57.6,25.54,3.67,37.65,12.81,50.46,26.53,100.7,40.16,150.95,6.25,23.06,25.5,34.97,46.5,29.36,20.71-5.53,31.08-25.83,24.97-49.06-5.32-20.21-10.9-40.35-16.05-60.6-2.79-10.97,3.82-20.4,14.2-19.97,4.18.17,8.58,2.15,12.35,4.25,17.23,9.59,34.28,19.51,52.85,30.15,0-25.5-.24-49.09.07-72.67.29-21.71,9.33-39.27,27.44-51.36,20.05-13.39,41.2-12.93,63.77-2.13Zm502.87-28.33c-39.59-68.58-78.65-136.23-118.02-204.43-5.12,2.85-10.48,5.23-15.17,8.55-9.67,6.87-18.16,6.38-28.29-.23-9.61-6.28-20.52-11.4-31.57-14.5-50.8-14.26-101.8-27.78-152.82-41.24-22.31-5.89-41.89,5.08-47.61,25.89-5.61,20.42,6.37,39.7,28.75,45.87,18.49,5.1,37.07,9.92,55.6,14.88,8.44,2.26,17,4.46,18.16,15.29,1.09,10.13-5.97,14.47-13.36,18.65-10.63,6.02-21.16,12.22-33.13,19.15,24.26,14.08,47.01,27.2,69.68,40.47,20.61,12.06,31.23,30.04,32.01,53.99.1,2.95,1.4,7.08,3.57,8.54,21.56,14.54,28.78,35.3,28.49,60.32-.48,41.87-.13,83.74-.13,125.61v12.47c4.92-2.61,8.2-4.22,11.37-6.05,30.29-17.47,60.35-35.36,90.89-52.39,39.32-21.92,60.98-54.78,65.39-99.63.54-5.49,5.11-11.83,9.66-15.41,7.72-6.07,16.93-10.25,26.52-15.8Zm-50.84-270.72c-31.12.14-50.85,31.47-36.38,57.19,36.09,64.14,73.14,127.75,110.34,191.26,11.13,19,34.35,24.06,52.93,13.21,18.37-10.73,25.36-33.63,14.51-52.66-36.28-63.64-73.05-127.01-109.89-190.34-7.28-12.51-19.16-18.09-31.51-18.66Zm-332.5,889.42c36,0,72.01.14,108.01-.06,20-.11,35.85-12.84,39.48-31.01,4.99-24.96-12.39-47.19-38.18-47.31-72.69-.34-145.39-.14-218.08-.04-3.71,0-7.56.56-11.1,1.64-19.09,5.81-30.13,23.79-27.24,43.95,2.65,18.44,19.09,32.6,39.1,32.75,36,.27,72.01.08,108.01.08Z"/>
</svg>