<?xml version="1.0" encoding="UTF-8"?>
<svg id="Layer_1" data-name="Layer 1" xmlns="http://www.w3.org/2000/svg" xmlns:xlink="http://www.w3.org/1999/xlink" viewBox="0 0 1100 1100">
  <defs>
    <style>
      .cls-1 {
        fill: none;
      }

      .cls-2 {
        clip-path: url(#clippath);
      }

      .cls-3 {
        fill: #fff;
      }

      .cls-4 {
        fill: #bc2026;
      }

      .cls-5 {
        fill: #b21c17;
      }

      .cls-6 {
        fill: #e01f26;
      }

      .cls-7 {
        fill: #e21617;
      }

      .cls-8 {
        fill: #1d1d1b;
      }

      .cls-9 {
        clip-path: url(#clippath-1);
      }

      .cls-10 {
        clip-path: url(#clippath-2);
      }
    </style>
    <clipPath id="clippath">
      <rect class="cls-1" x="119.22" y="378.58" width="788.1" height="375.27"/>
    </clipPath>
    <clipPath id="clippath-1">
      <rect class="cls-1" x="119.22" y="378.58" width="788.1" height="375.27"/>
    </clipPath>
    <clipPath id="clippath-2">
      <rect class="cls-1" x="152.48" y="502.86" width="119.85" height="142.41"/>
    </clipPath>
  </defs>
  <rect class="cls-7" x="30" y="11.05" width="929.63" height="929.63" rx="24" ry="24"/>
  <rect class="cls-5" x="30" y="11.05" width="49.17" height="928.46" rx="16.16" ry="16.16"/>
  <rect class="cls-5" x="33.51" y="885.64" width="926.11" height="55.03" rx="14.97" ry="14.97"/>
  <rect class="cls-5" x="51.07" y="11.05" width="908.55" height="144.01" rx="24.32" ry="24.32"/>
  <g>
    <circle class="cls-3" cx="156.97" cy="84.55" r="34.84"/>
    <circle class="cls-3" cx="264.45" cy="84.55" r="34.84"/>
    <circle class="cls-3" cx="371.92" cy="84.55" r="34.84"/>
  </g>
  <g>
    <rect class="cls-3" x="102.4" y="302.9" width="821.73" height="526.64"/>
    <g id="Svart_logo" data-name="Svart logo">
      <g class="cls-2">
        <g class="cls-9">
          <path class="cls-8" d="m470.89,645.43c-8.7,0-16.76-2.17-25.03-6.53h-.44c-.43,1.96-1.09,4.79-1.09,4.79h-20.89v-156.92h25.9v55.28h.22c7.18-3.27,12.4-4.79,21.33-4.79,30.91,0,39.61,18.93,39.61,53.1,0,27.86-5.88,55.06-39.61,55.06m-1.09-85.75c-8.92,0-15.89,2.18-20.46,6.1,0,28.72,0,25.03-.22,50.71,4.57,3.27,11.54,6.54,20.89,6.54,15.67,0,15.02-23.08,15.02-32.65,0-26.34-4.79-30.69-15.24-30.69"/>
          <path class="cls-8" d="m584.5,643.7l-1.52-5.44-.43.22c-9.8,5.66-18.06,7.19-28.08,7.19-16.76,0-29.6-11.1-29.6-30.04,0-11.97,3.05-20.02,8.49-25.46,10.44-9.8,28.5-10.67,46.14-11.1v-10.88c0-5.44-3.05-8.92-13.93-8.92-8.7,0-17.41,1.96-30.91,5.87l-1.52-23.5c14.15-3.26,21.33-4.35,34.17-4.35,19.81,0,37.64,6.31,37.64,27.64v78.79h-20.46Zm-30.25-41.13c-2.18,1.96-3.26,5.22-3.26,9.58,0,7.4,2.83,11.54,10.45,11.54s9.36-.44,17.85-5.44l.22-20.89c-8.93.22-20.9,1.09-25.25,5.22"/>
          <polygon class="cls-8" points="687.88 643.48 663.93 600.17 663.72 599.95 655.23 609.96 655.23 643.48 629.33 643.48 629.11 486.78 655.23 486.78 655.23 571.66 655.45 571.88 659.8 565.78 680.47 539.45 712.9 539.45 680.04 579.71 717.04 643.48 687.88 643.48"/>
          <path class="cls-8" d="m791.91,643.7l-1.31-5.23-.44.22c-9.36,4.79-17.85,6.74-28.51,6.74-14.15,0-32.64-6.31-32.64-27.2v-78.79h25.68v76.17c0,5.23,4.35,8.05,8.71,8.05,11.32,0,18.28-3.27,23.72-6.75v-77.48h25.68v104.25h-20.89Z"/>
          <path class="cls-8" d="m866.99,645.44c-6.31,0-19.37-.43-30.47-2.17l1.52-22.64c11.32,1.74,21.98,3.05,28.95,3.05,5.22,0,13.93-.44,13.93-5.88.21-5.22-2.4-6.97-6.32-9.36l-23.07-14.36c-7.83-5-18.94-11.97-18.94-29.6,0-20.67,20.68-27.21,38.31-27.21,6.31,0,17.19,0,28.51,1.96l-1.74,22.85c-11.32-1.74-19.59-2.83-26.55-2.83-3.7,0-7.62-.22-10.23,1.09-1.52.65-2.61,2.61-2.61,4.57,0,3.48.87,5.66,5.22,8.48l20.46,12.84c11.32,6.97,22.2,14.15,22.2,31.77,0,20.46-20.46,27.42-39.18,27.42"/>
          <path class="cls-8" d="m377.96,643.48l-7.62-29.16h-46.79l-7.62,29.16h-28.07l42.44-151.48h33.08l42.44,151.48h-27.86Zm-27.42-107.08l-3.48-17.41h-.44l-3.48,17.41-13.27,54.19,33.95-.21-13.27-53.98Z"/>
          <path class="cls-6" d="m271.69,569.55c0,41.75-33.84,75.59-75.59,75.59s-75.59-33.85-75.59-75.59,33.85-75.59,75.59-75.59,75.59,33.84,75.59,75.59"/>
        </g>
        <g class="cls-10">
          <path class="cls-4" d="m232.09,502.86c18.97,13.74,31.32,36.04,31.32,61.25,0,41.75-33.85,75.6-75.6,75.6-12.76,0-24.78-3.18-35.32-8.76,12.44,9.01,27.73,14.33,44.26,14.33,41.75,0,75.59-33.85,75.59-75.59,0-28.98-16.31-54.13-40.24-66.82"/>
        </g>
      </g>
    </g>
  </g>
  <g>
    <g>
      <path class="cls-5" d="m853.41,1077.93c-14.39-15.39-115.18-122.57-160.94-154.08-.18-.12-19-13.39-20.72-30.11-.78-7.51,2.09-14.77,8.52-21.58,4.48-4.74,9.63-7.05,15.72-7.05,23.99,0,52.73,35.54,53.01,35.9l13.56,16.93-77.16-203.67-.04-.08c-.1-.22-9.79-22.72-3.14-38.55,2.57-6.12,7.16-10.36,14.02-12.96,2.45-.93,4.87-1.4,7.2-1.4,21.43,0,33.32,38.75,33.44,39.14l.06.18,46.11,127.26,6.46-2.28c-10.17-29.54-14.03-50.49-11.47-62.25,1.92-8.85,7.1-10.83,12.11-12.73,1.03-.39,2-.76,2.95-1.19.74-.34,1.51-.5,2.35-.5,14.57,0,40.25,45.33,53.02,73.9l6.27-2.74c-.19-.44-18.53-43.82-8.5-66.51,2.53-5.73,6.6-9.5,12.44-11.52.61-.21,1.22-.31,1.88-.31,10.06,0,27.13,23.14,44.55,60.39l6.29-2.71c-3.86-9.77-9.57-27.91-4.36-39.71,2.04-4.61,5.52-7.79,10.64-9.74,1.23-.47,2.48-.69,3.81-.69,13.87,0,30.49,25.1,35.77,34.86.8,1.64,18.04,37.27,31.64,83.95,12.58,43.19,24.52,104.85,10.46,154.56l-145.95,55.29Z"/>
      <path class="cls-7" d="m703.45,664.71h0c9.23,0,16.75,9.37,21.43,17.23,5.7,9.56,8.7,19.39,8.73,19.48l.05.18.06.18,46.1,127.21c1.76,5.13,3.74,10.59,5.88,16.23l12.84-4.76-5.81-16.04c-9.95-28.91-13.76-49.22-11.34-60.36,1.53-7.04,5.07-8.39,9.98-10.26,1.03-.39,2.1-.8,3.14-1.27.3-.14.59-.2.94-.2,1.67,0,10.97,1.67,30.47,34.52,10.94,18.43,19.35,37.17,19.43,37.36l12.55-5.49c-5.02-11.74-16.34-46.1-8.51-63.78,2.13-4.81,5.54-7.97,10.43-9.67.24-.08.48-.12.76-.12,1.19,0,7.8,1,20.8,20.6,8.27,12.46,15.73,27.31,20.57,37.64,2.53,6.38,4.79,10.65,4.89,10.83l12.36-5.87c-.07-.17-1.78-4.21-4.67-10.39-6.18-15.69-7.76-29.13-4.33-36.88,1.65-3.73,4.5-6.32,8.72-7.92.84-.32,1.69-.47,2.6-.47,11.2,0,26.83,22.15,32.72,33,1.1,2.26,18.05,37.48,31.43,83.45,8.04,27.63,13.25,53.68,15.46,77.43,2.6,27.88,1.05,52.58-4.58,73.47l-142.18,53.87c-19.01-20.28-115.29-122.15-159.91-152.87-.18-.12-17.74-12.56-19.29-27.68-.67-6.56,1.82-12.72,7.61-18.85,3.8-4.02,8.13-5.98,13.23-5.98,18.53,0,42.62,24.99,50.34,34.62l27.15,33.94-15.4-40.65-69.45-183.3-.06-.17-.07-.15c-.09-.21-9.2-21.43-3.12-35.87,2.19-5.2,6.14-8.82,12.07-11.07,2.06-.78,4.07-1.18,5.99-1.18m0-6.85c-2.67,0-5.47.5-8.42,1.62-32.12,12.17-12.8,56.09-12.8,56.09l69.45,183.3s-29.74-37.19-55.69-37.19c-6.48,0-12.72,2.32-18.21,8.12-27.43,29.03,12.75,56.86,12.75,56.86,48.54,33.43,161.95,155.28,161.95,155.28l149.7-56.71c29.11-98.37-41.86-242.66-41.86-242.66,0,0-19.8-36.71-38.81-36.71-1.69,0-3.36.29-5.02.92-22.56,8.55-14.54,38.02-8.25,53.91,2.92,6.25,4.65,10.34,4.65,10.34,0,0-2.19-4.13-4.65-10.34-9.39-20.07-31.13-62.36-47.66-62.37-1.02,0-2.02.16-3,.5-36.03,12.49-5.97,82.61-5.97,82.61,0,0-33.92-75.92-56.15-75.93-1.3,0-2.55.26-3.76.8-10.1,4.57-31.42,4.83-5.41,80.41l5.83,16.09c-2.16-5.71-4.1-11.06-5.83-16.09l-46.11-127.27s-12.5-41.58-36.72-41.58h0Z"/>
    </g>
    <g>
      <path class="cls-5" d="m852.48,1085.05c-.86,0-1.69-.36-2.28-.99-4.64-4.98-114.06-122.21-161.44-154.84-.87-.6-21.46-15.05-23.51-34.79-.99-9.5,2.47-18.5,10.27-26.76,5.7-6.04,12.57-9.1,20.41-9.1.44,0,.88,0,1.33.03,10.2.42,22.44,6.24,35.38,16.85l9.91,8.12-63.27-166.99-.04-.09c-.11-.24-10.75-24.99-3.05-43.35,3.25-7.76,9.22-13.33,17.74-16.56,3.22-1.22,6.43-1.84,9.54-1.84,3.76,0,7.5.9,11.11,2.69,7.62,3.76,14.9,11.84,21.06,23.37,4.9,9.18,7.4,17.42,7.51,17.76l.06.18,26.07,71.93,2.83-10.44c2.45-9.01,8.05-12.8,15.72-15.72l.26-.1c.77-.29,1.56-.59,2.32-.94,1.57-.71,3.28-1.07,5.05-1.07s3.56.36,5.4,1.05c8.12,3.08,18.37,14.09,29.66,31.84l6.78,10.67-.47-12.63c-.33-8.95.82-16.48,3.43-22.39,3.29-7.43,8.62-12.36,16.3-15.07,1.2-.42,2.47-.63,3.75-.63,9.01,0,20.24,10.25,32.5,29.66l4.69,7.42,1.57-8.64c.34-1.86.82-3.62,1.43-5.22,2.58-6.84,7.72-11.88,14.87-14.59,1.97-.75,4.02-1.13,6.09-1.13,16.49,0,33.9,24.11,41.58,38.36l.08.16c2.89,5.88,71.13,146.51,42.02,244.87-.28.92-.98,1.68-1.88,2.02l-149.7,56.71c-.35.13-.72.2-1.1.2Zm-156.52-220.26c-6.08,0-11.44,2.41-15.92,7.15-6.58,6.96-9.4,14.09-8.61,21.8,1.71,16.74,20.08,29.81,20.86,30.36,44.43,30.6,140.63,132.42,159.47,152.52l1.57,1.67,146.31-55.43.46-1.69c25.67-94.65-39.71-231.35-42.51-237.12l-.07-.14c-3.07-5.66-8.64-14.29-15.06-21.56-7.85-8.89-14.87-13.4-20.87-13.4-1.39,0-2.74.24-4,.72-5.58,2.11-9.26,5.69-11.25,10.95-4.09,10.83-.04,26.18,4.09,37.15l.04.12.05.12c1.78,3.84,3.54,7.81,5.22,11.8.65,1.53-.03,3.3-1.54,4.02-.42.2-.86.3-1.32.3-1.16,0-2.22-.64-2.76-1.66-.43-.81-2.71-5.25-5.16-11.61l-.04-.11-.05-.11c-9.56-20.5-31.07-59.27-44.06-59.27-.77,0-1.52.12-2.22.37-5.88,2.09-10.12,6.02-12.62,11.68-3.71,8.38-3.98,20.61-.81,36.33,2.44,12.11,6.54,23.96,9.3,30.43.67,1.56-.06,3.39-1.62,4.07-.36.15-.77.23-1.2.23-1.26,0-2.39-.71-2.88-1.82-8.14-18.22-33.02-66.94-50.09-73.42-1.15-.44-2.24-.67-3.23-.67-.92,0-1.77.19-2.53.57-.87.39-1.84.76-2.84,1.14-11.46,4.36-21.92,14.12-.94,75.07l5.93,16.35c.58,1.59-.24,3.37-1.82,3.97l-.1.04c-.27.1-.63.16-1,.16-1.28,0-2.45-.81-2.91-2.01-2.09-5.51-4.02-10.85-5.74-15.85l-46.19-127.46c-3.13-10.25-12.43-31.18-25.46-37.6-2.71-1.33-5.53-2.01-8.37-2.01-2.38,0-4.83.47-7.3,1.41-6.86,2.6-11.64,7.02-14.21,13.15-6.48,15.45,2.41,37.03,3.11,38.68l69.55,183.55c.54,1.44-.03,3.04-1.36,3.8-.5.29-1,.43-1.53.43-.95,0-1.84-.43-2.44-1.19-.28-.35-28.34-35.02-52.25-35.99-.34-.01-.69-.02-1.03-.02Z"/>
      <path class="cls-7" d="m774.02,766.26c-1.31,9.97.87,24.46,6.64,44l-10.62-29.32,3.99-14.68m127.2,4.75c-.01,7.62,1.88,15.75,4.18,22.83-2.46-5.05-5.01-9.96-7.6-14.63l1.49,2.36,1.92-10.56m-60.56,13.02c.31,2.08.69,4.21,1.13,6.42,1.64,8.13,4.01,16.16,6.25,22.59-3.27-6.8-6.87-13.77-10.55-20.41l3.7,5.83-.54-14.42m-99.75,102.61l8.41,6.89,1.38,3.65c-2.52-3.02-5.89-6.7-9.79-10.54m-37.43-235.33c-3.54,0-7.13.69-10.75,2.06-9.43,3.57-16.05,9.77-19.69,18.44-8.3,19.78,2.74,45.31,3.09,46.08l58.69,154.92c-10.78-8.83-24.26-17.08-37.41-17.62-.49-.02-.98-.03-1.47-.03-8.83,0-16.53,3.42-22.9,10.17-8.52,9.01-12.29,18.93-11.19,29.47,2.22,21.26,24.03,36.6,24.98,37.26,47.4,32.65,159.74,153.14,160.87,154.35,1.26,1.35,3,2.08,4.78,2.08.78,0,1.56-.14,2.31-.42l149.7-56.71c1.91-.72,3.37-2.3,3.95-4.25,29.49-99.67-39.32-241.42-42.26-247.4-.04-.07-.08-.15-.11-.22-2.42-4.48-22.37-40.16-44.6-40.15-2.41,0-4.86.42-7.31,1.35-8.1,3.07-13.92,8.8-16.86,16.58-.71,1.87-1.23,3.82-1.59,5.82-10.61-16.8-23.27-31.25-35.39-31.25-1.64,0-3.27.27-4.89.83-8.5,3-14.62,8.63-18.29,16.91-3.1,7.02-4.04,15.37-3.72,23.9-9.66-15.2-20.93-29.25-31.33-33.2-2.44-.93-4.66-1.28-6.62-1.28-2.67,0-4.86.65-6.46,1.38-.74.33-1.54.63-2.39.95-7.73,2.94-14.86,7.19-17.81,18.03l-22.38-61.76c-.41-1.35-10.2-33.28-30.33-43.21-4.11-2.03-8.33-3.04-12.63-3.04h0Zm48.22,254.11c1.1,0,2.21-.28,3.23-.88,2.79-1.59,4.01-4.98,2.87-7.99l-69.57-183.62c-2.6-5.91-8.23-23.91-3.13-36.08,2.22-5.3,6.24-8.99,12.27-11.27,2.09-.79,4.11-1.19,6.09-1.19,2.34,0,4.61.55,6.86,1.66,12.48,6.15,21.28,27.54,23.73,35.61l46.2,127.49c1.72,5.01,3.65,10.32,5.78,15.95.99,2.61,3.47,4.22,6.11,4.22.75,0,1.52-.13,2.27-.41.01,0,.03-.01.04-.02,3.34-1.26,5.05-4.98,3.83-8.34l-5.91-16.3c-21.65-62.94-8.44-67.96-1.08-70.76,1.1-.42,2.15-.82,3.12-1.26.16-.09.48-.23,1.04-.23.48,0,1.14.11,2.02.44,14.19,5.39,37.09,46.79,48.18,71.62,1.09,2.44,3.51,3.84,6.01,3.84.87,0,1.74-.17,2.57-.52,3.29-1.44,4.8-5.26,3.39-8.55-5.04-11.78-16.38-46.24-8.51-64.03,2.17-4.9,5.76-8.1,10.61-9.83.34-.12.71-.18,1.1-.18,8.12,0,26.04,25.31,40.95,57.29,2.62,6.8,5.07,11.47,5.33,11.98,1.17,2.21,3.44,3.48,5.79,3.48.94,0,1.89-.2,2.79-.63,3.16-1.5,4.58-5.22,3.22-8.45-1.29-3.06-3.08-7.17-5.27-11.9-4.03-10.73-7.69-25.2-4.09-34.74,1.64-4.34,4.58-7.19,9.26-8.96.89-.34,1.82-.5,2.78-.5,11.21,0,26.64,21.58,32.93,33.17,2.21,4.57,67.67,141.13,42.28,234.73l-142.53,54c-18.66-19.92-115.3-122.2-160-152.98-.18-.12-17.86-12.63-19.42-27.91-.68-6.65,1.83-12.9,7.69-19.1,3.85-4.07,8.24-6.07,13.43-6.07.3,0,.59,0,.89.02,18.56.75,42.19,25.31,49.72,34.71,1.28,1.6,3.18,2.47,5.11,2.47h0Z"/>
    </g>
  </g>
</svg>