<?xml version="1.0" encoding="UTF-8"?>
<svg id="Layer_1" data-name="Layer 1" xmlns="http://www.w3.org/2000/svg" viewBox="0 0 1100 1100">
  <defs>
    <style>
      .cls-1 {
        fill: #fff;
      }

      .cls-2 {
        fill: #e21617;
      }
    </style>
  </defs>
  <path class="cls-2" d="m379.48,11.21c146.67,0,293.33,0,441.23.78,5.4,2.11,9.83,2.92,13.69,4.88,24.11,12.22,33.2,33.61,33.22,58.96.22,275.33.17,550.66,0,825.99,0,7.74-1.23,15.78-3.54,23.17-9.6,30.73-32.03,43.67-66.01,43.71-196.06.26-392.13.17-588.19.03-15.95-.01-31.9-1.57-47.86-1.95-28.5-.68-54.11-28.49-54.09-58.77.11-205.18.06-410.37.06-615.55v-9.75h11.32c60.33,0,120.66.29,180.98-.15,23.26-.17,43.06-10.14,58.71-26.99,17.11-18.42,22.59-41.65,22.46-66.01-.3-59.46-1.27-118.91-1.97-178.36m173.63,553.52c-82.7,0-165.4-.05-248.09.09-7.15.01-14.39.84-21.43,2.14-10.56,1.95-21.63,19.14-19.14,28.88,4.06,15.88,14.07,23.61,30.64,23.61,94.96,0,189.92,0,284.89,0,42.75,0,85.5-.1,128.25.07,11.32.04,18.46-6.53,23.68-14.99,5.22-8.46,3.45-16.79-2-25.6-7.47-12.07-18.87-13.92-30.67-14.02-48-.42-96.01-.18-146.12-.18m-63.14-151.53c-65.18,0-130.35,0-195.53,0-15.23,0-30.28,12.82-30.7,26.06-.44,14.03,14.59,28.6,30.21,28.61,137.01.09,274.02.21,411.03-.12,19.93-.05,29.32-13.95,29.93-28.55.49-11.66-15.85-26.46-30.5-26.32-70.78.71-141.56.32-214.45.32m-159.95,296.75c-12.61,0-25.29.82-37.82-.21-15.52-1.28-26.99,13.99-28.19,26.55-1.25,13.08,13.72,26.27,27.98,26.27,68.67.02,137.35-.22,206.02.17,17.26.1,28.81-12.59,28.53-26.89-.25-12.66-11.5-26.28-28.34-26.1-55.35.58-110.72.22-168.18.22Z"/>
  <path class="cls-2" d="m277.34,1088.79c-20.69-8.47-37.33-20.65-42.1-42.66-3.12-14.38-2.92-29.49-4.34-45.74h12.63c184.84,0,369.68.1,554.52-.12,26.17-.03,50.84-6.65,70.37-25.1,15.9-15.02,27.28-33.2,28.7-55.86,1.15-18.38,2.09-36.81,2.1-55.22.14-240.26.09-480.52.09-720.78v-12.01c20.66-.04,40.7-1.85,59.25,7.59,21.73,11.05,33.22,29.17,33.24,53.43.2,165.9.11,331.8.11,497.7,0,111.19-.23,222.37.15,333.56.11,31.05-13.29,52.07-42.04,64.47-224.04.74-447.88.74-672.7.74Z"/>
  <path class="cls-2" d="m328.06,11.21c15.7,5.35,20.43,15.65,20.17,31.41-.86,54-.85,108.03-.09,162.04.32,22.94-22.76,46.34-46.8,46.42-54.37.19-108.73-.08-163.1.16-12.11.05-21.65-3.69-27.03-14.82-5.89-12.19-3.91-21.02,6.88-32.14,11.23-11.58,22.77-22.86,34.18-34.27,48.86-48.86,97.64-97.8,146.72-146.44,4.66-4.61,11.23-7.29,17.13-11.62,3.82-.75,7.43-.75,11.94-.75Z"/>
  <path class="cls-1" d="m554.16,564.73c49.06,0,97.07-.25,145.07.18,11.8.1,23.2,1.95,30.67,14.02,5.45,8.81,7.22,17.14,2,25.6-5.22,8.46-12.36,15.03-23.68,14.99-42.75-.17-85.5-.07-128.25-.07-94.96,0-189.92,0-284.89,0-16.58,0-26.59-7.73-30.64-23.61-2.49-9.73,8.58-26.93,19.14-28.88,7.04-1.3,14.28-2.13,21.43-2.14,82.7-.14,165.4-.09,249.15-.09Z"/>
  <path class="cls-1" d="m491.02,413.2c71.84,0,142.62.39,213.4-.32,14.65-.15,30.98,14.65,30.5,26.32-.61,14.6-10,28.5-29.93,28.55-137.01.33-274.02.21-411.03.12-15.62,0-30.65-14.58-30.21-28.61.41-13.24,15.47-26.05,30.7-26.06,65.18-.01,130.35,0,196.58,0Z"/>
  <path class="cls-1" d="m331.07,709.95c56.41,0,111.77.36,167.13-.22,16.84-.18,28.09,13.45,28.34,26.1.28,14.3-11.27,26.99-28.53,26.89-68.67-.39-137.35-.15-206.02-.17-14.26,0-29.23-13.19-27.98-26.27,1.2-12.56,12.67-27.83,28.19-26.55,12.53,1.03,25.21.21,38.88.21Z"/>
</svg>