<?xml version="1.0" encoding="UTF-8"?>
<svg id="Layer_1" xmlns="http://www.w3.org/2000/svg" viewBox="0 0 1100 1100">
  <defs>
    <style>
      .cls-1 {
        fill: #e21617;
        stroke: #e21617;
        stroke-miterlimit: 10;
        stroke-width: 1.18px;
      }
    </style>
  </defs>
  <path class="cls-1" d="M720.21,320.25h85.4l-60.14,309.15-1.21,6.01c-5.61,28.08-8.41,48.12-8.41,60.15,0,11.23,2,20.25,6.01,27.06,4.01,6.82,10.83,10.22,20.45,10.22,13.63,0,28.06-6.41,43.3-19.24,15.23-12.83,29.46-30.27,42.7-52.32,13.24-22.04,23.87-46.9,31.88-74.57,8.02-27.67,12.03-55.94,12.03-84.81,0-49.71-8.02-94.82-24.06-135.32-16.04-40.5-38.9-75.18-68.56-104.05-29.68-28.87-64.37-50.92-104.06-66.16-39.7-15.23-82.4-22.86-128.1-22.86-49.71,0-96.43,9.62-140.13,28.87-43.71,19.24-82.01,46.32-114.88,81.19-32.88,34.89-58.53,75.18-76.98,120.89-18.46,45.72-27.67,94.24-27.67,145.56s10.02,103.86,30.08,150.37c20.05,46.51,47.72,86.61,83,120.29,35.28,33.68,75.97,59.74,122.08,78.19s94.43,27.66,144.96,27.66c103.45,0,178.02-19.24,223.74-57.73l90.21,72.18c-51.33,27.26-100.26,47.72-146.77,61.35-46.51,13.62-105.45,20.44-176.81,20.44-63.36,0-123.5-11.63-180.44-34.87-56.95-23.25-106.86-56.33-149.75-99.24-42.91-42.91-76.39-93.44-100.45-151.58-24.06-58.14-36.08-120.48-36.08-187.05s11.82-128.7,35.49-186.45c23.65-57.73,56.54-108.06,98.64-150.96,42.1-42.89,91.02-76.17,146.75-99.84,55.74-23.65,115.28-35.49,178.64-35.49,53.72,0,104.44,8.63,152.16,25.86,47.72,17.25,91.22,43.5,130.53,78.78,42.5,36.9,75.58,78.61,99.24,125.12,23.65,46.51,35.49,97.02,35.49,151.55,0,50.53-6.43,97.84-19.26,141.94-12.83,44.12-31.27,81.8-55.33,113.07-27.26,35.3-56.74,61.57-88.41,78.8-31.68,17.25-63.96,25.86-96.83,25.86-16.85-.8-30.88-7.81-42.1-21.05s-18.85-31.08-22.86-53.53c-23.27,23.27-47.92,41.51-73.99,54.74-26.07,13.24-55.93,19.84-89.6,19.84-26.48,0-51.73-5.61-75.78-16.84-24.06-11.23-45.72-27.28-64.96-48.12-19.24-20.85-34.29-44.7-45.11-71.57-10.83-26.85-16.24-55.53-16.24-86.02,0-36.08,5.8-71.36,17.44-105.84,11.63-34.48,28.27-65.36,49.93-92.62,21.65-27.26,47.72-48.72,78.19-64.37,30.47-15.63,63.74-23.46,99.84-23.46,31.27,0,59.93,6.62,86,19.86s50.72,35.08,73.99,65.55l16.84-74.57ZM674.5,541.57v-13.22c0-39.29-11.24-69.96-33.69-92.02-22.45-22.04-52.53-33.08-90.21-33.08-23.27,0-44.71,5.22-64.35,15.64-19.65,10.42-36.7,24.65-51.13,42.7-14.43,18.05-25.27,38.09-32.48,60.14-7.22,22.06-10.82,43.91-10.82,65.56,0,36.88,11.02,68.97,33.08,96.24,22.04,27.26,51.11,40.89,87.21,40.89,49.71,0,87.42-15.83,113.07-47.51,25.66-31.67,41.7-71.96,48.11-120.89,0-4.01.39-8.82,1.21-14.45Z"/>
</svg>