<?xml version="1.0" encoding="UTF-8"?>
<svg id="Layer_1" data-name="Layer 1" xmlns="http://www.w3.org/2000/svg" viewBox="0 0 1100 1100">
  <defs>
    <style>
      .cls-1 {
        fill: #e11f26;
        stroke: #e11f26;
        stroke-miterlimit: 10;
      }
    </style>
  </defs>
  <path class="cls-1" d="m434.95,1087c-9.82-2.11-19.69-3.99-29.44-6.37-89.12-21.8-153.86-102.91-155.51-194.72-.03-1.69.16-3.39.29-5.68h82.37c1.11,8.06,1.79,16.34,3.44,24.42,11.59,56.82,60.28,97.6,118.18,98.42,38.05.54,76.13.59,114.18-.01,66.28-1.04,118.58-54.19,118.86-120.03.28-65.94-52.58-119.62-119.35-120.62-34.21-.51-68.44.15-102.66-.17-101.11-.95-184.29-66.9-208.23-164.83-23.4-95.73,27.43-199.42,117.95-240.62,3.13-1.42,6.24-2.9,10.39-4.83-5.73-7.98-11.32-15.34-16.44-23-82.44-123.18-4.26-295.63,143.04-311.87,58.49-6.45,118.1-7.68,176.52,1.78,95.07,15.4,168.6,105.4,165.75,199.98h-82.69c-.61-6.02-.93-12.25-1.91-18.36-9.09-56.48-57.88-100.33-115.11-101.86-40.82-1.09-81.73-1.17-122.54.03-60.03,1.76-108.98,51.76-112.34,112.97-3.32,60.37,40.03,114.99,99.4,123.24,19.91,2.77,40.37,1.47,60.57,2.22,34.48,1.28,69.38-.26,103.35,4.64,83.99,12.12,157.99,89.83,169.03,173.67,13.39,101.71-33,186.22-126.14,229.8-1.51.71-2.93,1.59-3.25,1.77,10.79,18.73,23.09,36.23,31.56,55.41,53.75,121.75-25.44,263.24-157.38,282.38-3.01.44-5.93,1.5-8.9,2.26h-152.97Zm118.1-408.5c28.99,0,58,.76,86.94-.32,14.81-.55,30.16-2.4,44.12-7.07,59.24-19.83,95.01-79.53,85.71-140.74-9.42-61.99-62.36-108.66-125.56-109.35-60.76-.66-121.53-.26-182.29,0-8.64.04-17.47,1.18-25.88,3.18-66.02,15.71-107.13,74.63-99.54,142.15,7.08,63.01,62.52,111.49,128.49,112.09,29.33.27,58.67.05,88,.05Z"/>
</svg>