<?xml version="1.0" encoding="UTF-8"?>
<svg id="Layer_1" data-name="Layer 1" xmlns="http://www.w3.org/2000/svg" viewBox="0 0 1100 1100">
  <defs>
    <style>
      .cls-1 {
        fill: #e11f26;
      }
    </style>
  </defs>
  <path class="cls-1" d="m533,1086c-13.06-1.64-33.88-6.09-54.72-19.81-39.42-25.96-69.86-79.42-57.93-138.57,10.63-52.7,54.23-93.85,109.47-103.31,61.71-10.57,124.58,27.09,145.56,87.2,23.21,66.49-14.18,131.03-58.67,158.04-18.01,10.93-35.87,14.91-48.7,16.46-5.36.62-11.4,1.02-18,1-6.2-.02-11.9-.42-17-1Z"/>
  <path class="cls-1" d="m723.63,191.96c-2.56,16.51-6.25,43.08-10.85,69.49-21.98,126.46-44.2,252.89-66.36,379.32-2.23,12.71-4.07,25.52-6.97,38.08-10.32,44.55-46.09,71.94-92.12,70.99-44.12-.91-79.28-30.26-87.21-74.38-16.46-91.66-32.27-183.45-48.32-275.18-10.82-61.85-21.51-123.72-32.43-185.55C359.46,101.96,457.92-.5,571.16,15.27c87.56,12.19,148.32,78.69,152.47,176.7Z"/>
</svg>