<?xml version="1.0" encoding="UTF-8"?>
<svg id="Layer_1" data-name="Layer 1" xmlns="http://www.w3.org/2000/svg" viewBox="0 0 1100 1100">
  <defs>
    <style>
      .cls-1 {
        fill: #e21617;
      }
    </style>
  </defs>
  <g>
    <path class="cls-1" d="m194.59,1090c-11.74-4.68-22.95-8.53-33.19-14.17-49.62-27.3-75.55-69.26-77.93-126.15-1.89-45.37,14.99-82.23,47.64-112.79,8.69-8.13,16.43-17.31,25.38-25.11,7.08-6.17,5.56-10.07-.48-15.78-15.02-14.18-29.16-29.29-44.25-43.37-7.16-6.68-7.32-12.4-1.2-19.31,10.41-11.75,20.8-23.52,31.1-35.37,22.18-25.52,44.26-51.14,66.46-76.65,15.78-18.13,31.78-36.08,47.55-54.23,21.47-24.7,42.74-49.59,64.26-74.26,20.63-23.64,41.35-47.21,62.28-70.59,8.34-9.32,15.39-19.82,25.77-28,3.52-.29,5.47,3.08,7.84,5.45,66.4,66.32,132.66,132.77,199.23,198.91,6.48,6.44,5.9,10.65-.4,16.04-29.6,25.34-59.21,50.67-88.61,76.24-24.16,21.02-47.91,42.51-72.06,63.53-24.15,21.02-48.67,41.62-72.85,62.6-18.68,16.21-37.01,32.81-55.63,49.09-15.98,13.97-32.11,27.78-48.23,41.58-5.2,4.45-8.86,1-12.52-2.68-15.09-15.12-30.2-30.21-45.41-45.21-2.41-2.38-4.27-5.68-9.71-6.43-20.81,24.05-50.82,41.61-58.42,77.25-5.48,25.7,7.58,60.61,28.45,76.68,18.86,14.53,40.38,18.66,62.89,18.75,95.95.36,191.91.15,287.86.16,14.82,0,14.74.04,14.89,14.94.16,15.74.52,31.47,1.08,48.02-116.74.82-233.77.82-351.79.82Z"/>
    <path class="cls-1" d="m799.97,14c8.31,5.3,17.37,4.97,25.57,7.36,47.89,13.94,87.78,39.59,120.19,77.75,26.64,31.38,43.84,67.03,51.96,106.96,10.49,51.54,5.48,101.73-15.82,150.13-17.71,40.25-44.44,73.2-79.94,98.87-27.14,19.62-57.22,33.18-89.98,40.6-7.43,1.68-11.63-3.02-16.14-7.53-66.6-66.63-133.25-133.23-199.87-199.84-23.53-23.52-46.92-47.19-70.67-70.5-5.67-5.57-6.97-10.72-4.98-18.61,11.59-45.8,34.03-84.77,67.87-118.08,37.56-36.97,82.54-57.42,134.3-66.82,26-.3,51.26-.3,77.51-.3Z"/>
    <path class="cls-1" d="m625.71,399.43c32.91,32.93,65.29,65.38,97.71,97.77,11.96,11.95,11.63,12.12-1.3,22.95-14.69,12.31-28.83,25.28-42.91,38.28-11.91,11-12.15,11.15-23.33-.02-66.58-66.53-133.18-133.05-199.79-199.56-10.39-10.38-10.21-10.16-.33-21.21,14.14-15.81,27.85-32.02,41.92-47.9,8.66-9.77,8.78-9.62,18.43.04,36.35,36.39,72.71,72.76,109.59,109.65Z"/>
  </g>
  <ellipse class="cls-1" cx="762.5" cy="173" rx="193.5" ry="163"/>
</svg>